<svg version="1.1" xmlns="http://www.w3.org/2000/svg" xmlns:xlink="http://www.w3.org/1999/xlink" width="635.2" height="578.6"><defs><linearGradient id="gTntoVIPOhko" x1="2306.0000014305115px" x2="1079.5000003576279px" y1="341.5px" y2="915.5000014305115px" gradientUnits="userSpaceOnUse"><stop offset="0" stop-color="rgb(255,193,7)" stop-opacity="1"/><stop offset="1" stop-color="rgb(132,80,186)" stop-opacity="1"/></linearGradient><linearGradient id="QTvigOUdZaMc" x1="2306.0000014305115px" x2="1079.5000003576279px" y1="341.5px" y2="915.5000014305115px" gradientUnits="userSpaceOnUse"><stop offset="0" stop-color="rgb(255,193,7)" stop-opacity="1"/><stop offset="1" stop-color="rgb(132,80,186)" stop-opacity="1"/></linearGradient><linearGradient id="HehTrxzomJTs" x1="2306.0000014305115px" x2="1079.5000003576279px" y1="474.50000071525574px" y2="915.5000014305115px" gradientUnits="userSpaceOnUse"><stop offset="0" stop-color="rgb(255,193,7)" stop-opacity="1"/><stop offset="1" stop-color="rgb(132,80,186)" stop-opacity="1"/></linearGradient><linearGradient id="rwBnMmExlheV" x1="2306.0000014305115px" x2="1079.5000003576279px" y1="474.50000071525574px" y2="915.5000014305115px" gradientUnits="userSpaceOnUse"><stop offset="0" stop-color="rgb(255,193,7)" stop-opacity="1"/><stop offset="1" stop-color="rgb(132,80,186)" stop-opacity="1"/></linearGradient><linearGradient id="vsDbMMFLBzxe" x1="1079.5000003576279px" x2="1303.0000007152557px" y1="915.5000014305115px" y2="341.5px" gradientUnits="userSpaceOnUse"><stop offset="0" stop-color="rgb(132,80,186)" stop-opacity="1"/><stop offset="1" stop-color="rgb(0,0,0)" stop-opacity="1"/></linearGradient><linearGradient id="pxcLpizIsNdF" x1="1079.5000003576279px" x2="1303.0000007152557px" y1="915.5000014305115px" y2="474.50000071525574px" gradientUnits="userSpaceOnUse"><stop offset="0" stop-color="rgb(132,80,186)" stop-opacity="1"/><stop offset="1" stop-color="rgb(0,0,0)" stop-opacity="1"/></linearGradient><linearGradient id="wKBGfzsJQGLi" x1="776.5px" x2="1329.0000007152557px" y1="1166.0000014305115px" y2="1266.0000014305115px" gradientUnits="userSpaceOnUse"><stop offset="0" stop-color="rgb(255,193,7)" stop-opacity="1"/><stop offset="1" stop-color="rgb(211,211,211)" stop-opacity="1"/></linearGradient><linearGradient id="BykIPBXJVCfO" x1="776.5px" x2="1329.0000007152557px" y1="1299.0000021457672px" y2="1266.0000014305115px" gradientUnits="userSpaceOnUse"><stop offset="0" stop-color="rgb(255,193,7)" stop-opacity="1"/><stop offset="1" stop-color="rgb(211,211,211)" stop-opacity="1"/></linearGradient><linearGradient id="BxIIffglehLS" x1="1603.0000007152557px" x2="500px" y1="1305.0000014305115px" y2="2118.7000035762785px" gradientUnits="userSpaceOnUse"><stop offset="0" stop-color="rgb(211,211,211)" stop-opacity="1"/><stop offset="1" stop-color="rgb(29,122,218)" stop-opacity="1"/></linearGradient><linearGradient id="kChBLDRAlFZZ" x1="1603.0000007152557px" x2="500px" y1="1305.0000014305115px" y2="1985.700002861023px" gradientUnits="userSpaceOnUse"><stop offset="0" stop-color="rgb(211,211,211)" stop-opacity="1"/><stop offset="1" stop-color="rgb(29,122,218)" stop-opacity="1"/></linearGradient></defs><g transform="translate(57.7,9.200000000000001) scale(0.2,0.2)"><path fill="rgb(244,236,255)" stroke="rgb(255,255,255)" paint-order="fill stroke markers" d=" M 1299.2500007152557 -44 L 2877.0000014305115 -44 L 2877.0000014305115 -44 A 8 8 0 0 1 2885.0000014305115 -36 L 2885.0000014305115 2836.7000042915342 L 2885.0000014305115 2836.7000042915342 A 8 8 0 0 1 2877.0000014305115 2844.7000042915342 L -278.5 2844.7000042915342 L -278.5 2844.7000042915342 A 8 8 0 0 1 -286.5 2836.7000042915342 L -286.5 -36 L -286.5 -36 A 8 8 0 0 1 -278.5 -44 L 1299.2500007152557 -44 Z" fill-opacity="1" stroke-opacity="1" stroke-miterlimit="10" stroke-width="2"/><text fill="rgb(0,0,0)" stroke="none" font-family="Avenir, Helvetica, Arial, sans-serif" font-size="32px" font-style="normal" font-weight="bold" text-decoration="normal" x="1299.2500007152557" y="31" text-anchor="middle" dominant-baseline="text-after-edge" fill-opacity="1">.</text><path fill="rgb(255,255,255)" stroke="rgb(211,211,211)" paint-order="fill stroke markers" d=" M 1303.0000007152557 157.5 L 1672.5000007152557 157.5 L 1672.5000007152557 157.5 A 8 8 0 0 1 1680.5000007152557 165.5 L 1680.5000007152557 567.5000007152557 L 1680.5000007152557 567.5000007152557 A 8 8 0 0 1 1672.5000007152557 575.5000007152557 L 933.5000007152557 575.5000007152557 L 933.5000007152557 575.5000007152557 A 8 8 0 0 1 925.5000007152557 567.5000007152557 L 925.5000007152557 165.5 L 925.5000007152557 165.5 A 8 8 0 0 1 933.5000007152557 157.5 L 1303.0000007152557 157.5 Z" fill-opacity="1" stroke-opacity="1" stroke-miterlimit="10"/><text fill="rgb(0,0,0)" stroke="none" font-family="Avenir, Helvetica, Arial, sans-serif" font-size="32px" font-style="normal" font-weight="bold" text-decoration="normal" x="1303.0000007152557" y="232.5" text-anchor="middle" dominant-baseline="text-after-edge" fill-opacity="1">unknown file</text><path fill="rgb(255,255,255)" stroke="rgb(211,211,211)" paint-order="fill stroke markers" d=" M 2306.0000014305115 157.5 L 2675.5000014305115 157.5 L 2675.5000014305115 157.5 A 8 8 0 0 1 2683.5000014305115 165.5 L 2683.5000014305115 567.5000007152557 L 2683.5000014305115 567.5000007152557 A 8 8 0 0 1 2675.5000014305115 575.5000007152557 L 1936.5000014305115 575.5000007152557 L 1936.5000014305115 575.5000007152557 A 8 8 0 0 1 1928.5000014305115 567.5000007152557 L 1928.5000014305115 165.5 L 1928.5000014305115 165.5 A 8 8 0 0 1 1936.5000014305115 157.5 L 2306.0000014305115 157.5 Z" fill-opacity="1" stroke-opacity="1" stroke-miterlimit="10"/><text fill="rgb(0,0,0)" stroke="none" font-family="Avenir, Helvetica, Arial, sans-serif" font-size="32px" font-style="normal" font-weight="bold" text-decoration="normal" x="2306.0000014305115" y="232.5" text-anchor="middle" dominant-baseline="text-after-edge" fill-opacity="1">outputs.tf</text><path fill="rgb(255,255,255)" stroke="rgb(211,211,211)" paint-order="fill stroke markers" d=" M 300 157.5 L 669.5 157.5 L 669.5 157.5 A 8 8 0 0 1 677.5 165.5 L 677.5 434.5 L 677.5 434.5 A 8 8 0 0 1 669.5 442.5 L -69.5 442.5 L -69.5 442.5 A 8 8 0 0 1 -77.5 434.5 L -77.5 165.5 L -77.5 165.5 A 8 8 0 0 1 -69.5 157.5 L 300 157.5 Z" fill-opacity="1" stroke-opacity="1" stroke-miterlimit="10"/><text fill="rgb(0,0,0)" stroke="none" font-family="Avenir, Helvetica, Arial, sans-serif" font-size="32px" font-style="normal" font-weight="bold" text-decoration="normal" x="300" y="232.5" text-anchor="middle" dominant-baseline="text-after-edge" fill-opacity="1">variables.tf</text><path fill="rgb(255,255,255)" stroke="rgb(211,211,211)" paint-order="fill stroke markers" d=" M 1079.5000003576279 814.5000014305115 L 2236.0000007152557 814.5000014305115 L 2236.0000007152557 814.5000014305115 A 8 8 0 0 1 2244.0000007152557 822.5000014305115 L 2244.0000007152557 2635.2000042915342 L 2244.0000007152557 2635.2000042915342 A 8 8 0 0 1 2236.0000007152557 2643.2000042915342 L -77 2643.2000042915342 L -77 2643.2000042915342 A 8 8 0 0 1 -85 2635.2000042915342 L -85 822.5000014305115 L -85 822.5000014305115 A 8 8 0 0 1 -77 814.5000014305115 L 1079.5000003576279 814.5000014305115 Z" fill-opacity="1" stroke-opacity="1" stroke-miterlimit="10"/><text fill="rgb(0,0,0)" stroke="none" font-family="Avenir, Helvetica, Arial, sans-serif" font-size="32px" font-style="normal" font-weight="bold" text-decoration="normal" x="1079.5000003576279" y="889.5000014305115" text-anchor="middle" dominant-baseline="text-after-edge" fill-opacity="1">main.tf</text><path fill="rgb(255,255,255)" stroke="rgb(132,80,186)" paint-order="fill stroke markers" d=" M 1079.5000003576279 920.5000014305115 L 2130.0000007152557 920.5000014305115 L 2130.0000007152557 920.5000014305115 A 8 8 0 0 1 2138.0000007152557 928.5000014305115 L 2138.0000007152557 2529.2000042915342 L 2138.0000007152557 2529.2000042915342 A 8 8 0 0 1 2130.0000007152557 2537.2000042915342 L 29 2537.2000042915342 L 29 2537.2000042915342 A 8 8 0 0 1 21 2529.2000042915342 L 21 928.5000014305115 L 21 928.5000014305115 A 8 8 0 0 1 29 920.5000014305115 L 1079.5000003576279 920.5000014305115 Z" fill-opacity="1" stroke-opacity="1" stroke-miterlimit="10" stroke-width="10"/><text fill="rgb(132,80,186)" stroke="none" font-family="Avenir, Helvetica, Arial, sans-serif" font-size="32px" font-style="normal" font-weight="bold" text-decoration="normal" x="1079.5000003576279" y="980.5000014305115" text-anchor="middle" dominant-baseline="text-after-edge" fill-opacity="1">hcloud_firewall</text><path fill="rgb(255,255,255)" stroke="rgb(211,211,211)" paint-order="fill stroke markers" d=" M 1603.0000007152557 1022.0000014305115 L 2028.5000007152557 1022.0000014305115 L 2028.5000007152557 1022.0000014305115 A 8 8 0 0 1 2036.5000007152557 1030.0000014305115 L 2036.5000007152557 1456.5000014305115 L 2036.5000007152557 1456.5000014305115 A 8 8 0 0 1 2028.5000007152557 1464.5000014305115 L 1177.5000007152557 1464.5000014305115 L 1177.5000007152557 1464.5000014305115 A 8 8 0 0 1 1169.5000007152557 1456.5000014305115 L 1169.5000007152557 1030.0000014305115 L 1169.5000007152557 1030.0000014305115 A 8 8 0 0 1 1177.5000007152557 1022.0000014305115 L 1603.0000007152557 1022.0000014305115 Z" fill-opacity="1" stroke-opacity="1" stroke-miterlimit="10"/><text fill="rgb(0,0,0)" stroke="none" font-family="Avenir, Helvetica, Arial, sans-serif" font-size="32px" font-style="normal" font-weight="bold" text-decoration="normal" x="1603.0000007152557" y="1097.0000014305115" text-anchor="middle" dominant-baseline="text-after-edge" fill-opacity="1">main.tf</text><path fill="rgb(255,255,255)" stroke="rgb(211,211,211)" paint-order="fill stroke markers" d=" M 500 1023.5000014305115 L 869.5 1023.5000014305115 L 869.5 1023.5000014305115 A 8 8 0 0 1 877.5 1031.5000014305115 L 877.5 1433.5000021457672 L 877.5 1433.5000021457672 A 8 8 0 0 1 869.5 1441.5000021457672 L 130.5 1441.5000021457672 L 130.5 1441.5000021457672 A 8 8 0 0 1 122.5 1433.5000021457672 L 122.5 1031.5000014305115 L 122.5 1031.5000014305115 A 8 8 0 0 1 130.5 1023.5000014305115 L 500 1023.5000014305115 Z" fill-opacity="1" stroke-opacity="1" stroke-miterlimit="10"/><text fill="rgb(0,0,0)" stroke="none" font-family="Avenir, Helvetica, Arial, sans-serif" font-size="32px" font-style="normal" font-weight="bold" text-decoration="normal" x="500" y="1098.5000014305115" text-anchor="middle" dominant-baseline="text-after-edge" fill-opacity="1">outputs.tf</text><path fill="rgb(255,255,255)" stroke="rgb(211,211,211)" paint-order="fill stroke markers" d=" M 500 1751.700002145767 L 869.5 1751.700002145767 L 869.5 1751.700002145767 A 8 8 0 0 1 877.5 1759.700002145767 L 877.5 2427.7000042915342 L 877.5 2427.7000042915342 A 8 8 0 0 1 869.5 2435.7000042915342 L 130.5 2435.7000042915342 L 130.5 2435.7000042915342 A 8 8 0 0 1 122.5 2427.7000042915342 L 122.5 1759.700002145767 L 122.5 1759.700002145767 A 8 8 0 0 1 130.5 1751.700002145767 L 500 1751.700002145767 Z" fill-opacity="1" stroke-opacity="1" stroke-miterlimit="10"/><text fill="rgb(0,0,0)" stroke="none" font-family="Avenir, Helvetica, Arial, sans-serif" font-size="32px" font-style="normal" font-weight="bold" text-decoration="normal" x="500" y="1826.700002145767" text-anchor="middle" dominant-baseline="text-after-edge" fill-opacity="1">variables.tf</text><path fill="rgb(255,255,255)" stroke="rgb(0,0,0)" paint-order="fill stroke markers" d=" M 1603.0000007152557 1171.0000014305115 L 1925.0000007152557 1171.0000014305115 L 1925.0000007152557 1171.0000014305115 A 8 8 0 0 1 1933.0000007152557 1179.0000014305115 L 1933.0000007152557 1353.0000014305115 L 1933.0000007152557 1353.0000014305115 A 8 8 0 0 1 1925.0000007152557 1361.0000014305115 L 1281.0000007152557 1361.0000014305115 L 1281.0000007152557 1361.0000014305115 A 8 8 0 0 1 1273.0000007152557 1353.0000014305115 L 1273.0000007152557 1179.0000014305115 L 1273.0000007152557 1179.0000014305115 A 8 8 0 0 1 1281.0000007152557 1171.0000014305115 L 1603.0000007152557 1171.0000014305115 Z" fill-opacity="1" stroke-opacity="1" stroke-miterlimit="10" stroke-width="5"/><rect fill="rgb(255,255,255)" stroke="none" x="1458.5000007152557" y="1122.0000014305115" width="289" height="96" fill-opacity="1"/><text fill="rgb(0,0,0)" stroke="none" font-family="Avenir, Helvetica, Arial, sans-serif" font-size="32px" font-style="normal" font-weight="bold" text-decoration="normal" x="1603.0000007152557" y="1186.0000014305115" text-anchor="middle" dominant-baseline="text-after-edge" fill-opacity="1">hcloud_firewall</text><path fill="none" stroke="url(#gTntoVIPOhko)" paint-order="fill stroke markers" d=" M 2306.0000014305115 341.5 L 2306.0000014305115 628.5000007152557 L 1079.5000003576279 628.5000007152557 L 1079.5000003576279 915.5000014305115" stroke-linejoin="round" stroke-miterlimit="10" stroke-width="10"/><path fill="none" stroke="url(#QTvigOUdZaMc)" paint-order="fill stroke markers" d=" M 2306.0000014305115 341.5 L 2306.0000014305115 628.5000007152557 L 1079.5000003576279 628.5000007152557 L 1079.5000003576279 915.5000014305115" stroke-linejoin="round" stroke-miterlimit="10" stroke-width="10"/><path fill="none" stroke="url(#HehTrxzomJTs)" paint-order="fill stroke markers" d=" M 2306.0000014305115 474.50000071525574 L 2306.0000014305115 695.0000010728836 L 1079.5000003576279 695.0000010728836 L 1079.5000003576279 915.5000014305115" stroke-linejoin="round" stroke-miterlimit="10" stroke-width="10"/><path fill="none" stroke="url(#rwBnMmExlheV)" paint-order="fill stroke markers" d=" M 2306.0000014305115 474.50000071525574 L 2306.0000014305115 695.0000010728836 L 1079.5000003576279 695.0000010728836 L 1079.5000003576279 915.5000014305115" stroke-linejoin="round" stroke-miterlimit="10" stroke-width="10"/><path fill="none" stroke="url(#vsDbMMFLBzxe)" paint-order="fill stroke markers" d=" M 1079.5000003576279 915.5000014305115 L 1079.5000003576279 628.5000007152557 L 1303.0000007152557 628.5000007152557 L 1303.0000007152557 341.5" stroke-linejoin="round" stroke-miterlimit="10" stroke-width="10"/><path fill="none" stroke="url(#pxcLpizIsNdF)" paint-order="fill stroke markers" d=" M 1079.5000003576279 915.5000014305115 L 1079.5000003576279 695.0000010728836 L 1303.0000007152557 695.0000010728836 L 1303.0000007152557 474.50000071525574" stroke-linejoin="round" stroke-miterlimit="10" stroke-width="10"/><path fill="none" stroke="url(#wKBGfzsJQGLi)" paint-order="fill stroke markers" d=" M 776.5 1166.0000014305115 L 1052.7500003576279 1166.0000014305115 L 1052.7500003576279 1266.0000014305115 L 1329.0000007152557 1266.0000014305115" stroke-linejoin="round" stroke-miterlimit="10" stroke-width="10"/><path fill="none" stroke="url(#BykIPBXJVCfO)" paint-order="fill stroke markers" d=" M 776.5 1299.0000021457672 L 1052.7500003576279 1299.0000021457672 L 1052.7500003576279 1266.0000014305115 L 1329.0000007152557 1266.0000014305115" stroke-linejoin="round" stroke-miterlimit="10" stroke-width="10"/><path fill="none" stroke="url(#BxIIffglehLS)" paint-order="fill stroke markers" d=" M 1603.0000007152557 1305.0000014305115 L 1603.0000007152557 1711.850002503395 L 500 1711.850002503395 L 500 2118.7000035762785" stroke-linejoin="round" stroke-miterlimit="10" stroke-width="10"/><path fill="none" stroke="url(#kChBLDRAlFZZ)" paint-order="fill stroke markers" d=" M 1603.0000007152557 1305.0000014305115 L 1603.0000007152557 1645.3500021457671 L 500 1645.3500021457671 L 500 1985.700002861023" stroke-linejoin="round" stroke-miterlimit="10" stroke-width="10"/><path fill="rgb(0,0,0)" stroke="rgb(0,0,0)" paint-order="fill stroke markers" d=" M 1303.0000007152557 261 L 1569.0000007152557 261 L 1569.0000007152557 261 A 8 8 0 0 1 1577.0000007152557 269 L 1577.0000007152557 331 L 1577.0000007152557 331 A 8 8 0 0 1 1569.0000007152557 339 L 1037.0000007152557 339 L 1037.0000007152557 339 A 8 8 0 0 1 1029.0000007152557 331 L 1029.0000007152557 269 L 1029.0000007152557 269 A 8 8 0 0 1 1037.0000007152557 261 L 1303.0000007152557 261 Z" fill-opacity="1" stroke-opacity="1" stroke-miterlimit="10" stroke-width="5"/><text fill="rgb(255,255,255)" stroke="none" font-family="Avenir, Helvetica, Arial, sans-serif" font-size="32px" font-style="normal" font-weight="bold" text-decoration="normal" x="1303.0000007152557" y="316" text-anchor="middle" dominant-baseline="text-after-edge" fill-opacity="1">name</text><path fill="rgb(0,0,0)" stroke="rgb(0,0,0)" paint-order="fill stroke markers" d=" M 1303.0000007152557 394.00000071525574 L 1569.0000007152557 394.00000071525574 L 1569.0000007152557 394.00000071525574 A 8 8 0 0 1 1577.0000007152557 402.00000071525574 L 1577.0000007152557 464.00000071525574 L 1577.0000007152557 464.00000071525574 A 8 8 0 0 1 1569.0000007152557 472.00000071525574 L 1037.0000007152557 472.00000071525574 L 1037.0000007152557 472.00000071525574 A 8 8 0 0 1 1029.0000007152557 464.00000071525574 L 1029.0000007152557 402.00000071525574 L 1029.0000007152557 402.00000071525574 A 8 8 0 0 1 1037.0000007152557 394.00000071525574 L 1303.0000007152557 394.00000071525574 Z" fill-opacity="1" stroke-opacity="1" stroke-miterlimit="10" stroke-width="5"/><text fill="rgb(255,255,255)" stroke="none" font-family="Avenir, Helvetica, Arial, sans-serif" font-size="32px" font-style="normal" font-weight="bold" text-decoration="normal" x="1303.0000007152557" y="449.00000071525574" text-anchor="middle" dominant-baseline="text-after-edge" fill-opacity="1">rule</text><path fill="rgb(255,247,224)" stroke="rgb(255,193,7)" paint-order="fill stroke markers" d=" M 2306.0000014305115 261 L 2572.0000014305115 261 L 2572.0000014305115 261 A 8 8 0 0 1 2580.0000014305115 269 L 2580.0000014305115 331 L 2580.0000014305115 331 A 8 8 0 0 1 2572.0000014305115 339 L 2040.0000014305115 339 L 2040.0000014305115 339 A 8 8 0 0 1 2032.0000014305115 331 L 2032.0000014305115 269 L 2032.0000014305115 269 A 8 8 0 0 1 2040.0000014305115 261 L 2306.0000014305115 261 Z" fill-opacity="1" stroke-opacity="1" stroke-miterlimit="10" stroke-width="5"/><text fill="rgb(0,0,0)" stroke="none" font-family="Avenir, Helvetica, Arial, sans-serif" font-size="32px" font-style="normal" font-weight="bold" text-decoration="normal" x="2306.0000014305115" y="316" text-anchor="middle" dominant-baseline="text-after-edge" fill-opacity="1">firewall_id</text><path fill="rgb(255,247,224)" stroke="rgb(255,193,7)" paint-order="fill stroke markers" d=" M 2306.0000014305115 394.00000071525574 L 2572.0000014305115 394.00000071525574 L 2572.0000014305115 394.00000071525574 A 8 8 0 0 1 2580.0000014305115 402.00000071525574 L 2580.0000014305115 464.00000071525574 L 2580.0000014305115 464.00000071525574 A 8 8 0 0 1 2572.0000014305115 472.00000071525574 L 2040.0000014305115 472.00000071525574 L 2040.0000014305115 472.00000071525574 A 8 8 0 0 1 2032.0000014305115 464.00000071525574 L 2032.0000014305115 402.00000071525574 L 2032.0000014305115 402.00000071525574 A 8 8 0 0 1 2040.0000014305115 394.00000071525574 L 2306.0000014305115 394.00000071525574 Z" fill-opacity="1" stroke-opacity="1" stroke-miterlimit="10" stroke-width="5"/><text fill="rgb(0,0,0)" stroke="none" font-family="Avenir, Helvetica, Arial, sans-serif" font-size="32px" font-style="normal" font-weight="bold" text-decoration="normal" x="2306.0000014305115" y="449.00000071525574" text-anchor="middle" dominant-baseline="text-after-edge" fill-opacity="1">firewall_name</text><path fill="rgb(225,240,255)" stroke="rgb(29,122,218)" paint-order="fill stroke markers" d=" M 300 261 L 566 261 L 566 261 A 8 8 0 0 1 574 269 L 574 331 L 574 331 A 8 8 0 0 1 566 339 L 34 339 L 34 339 A 8 8 0 0 1 26 331 L 26 269 L 26 269 A 8 8 0 0 1 34 261 L 300 261 Z" fill-opacity="1" stroke-opacity="1" stroke-miterlimit="10" stroke-width="5"/><text fill="rgb(0,0,0)" stroke="none" font-family="Avenir, Helvetica, Arial, sans-serif" font-size="32px" font-style="normal" font-weight="bold" text-decoration="normal" x="300" y="316" text-anchor="middle" dominant-baseline="text-after-edge" fill-opacity="1">token</text><path fill="rgb(40,167,69)" stroke="none" paint-order="stroke fill markers" d=" M 1603.0000007152557 1227.0000014305115 L 1869.0000007152557 1227.0000014305115 L 1869.0000007152557 1227.0000014305115 A 8 8 0 0 1 1877.0000007152557 1235.0000014305115 L 1877.0000007152557 1297.0000014305115 L 1877.0000007152557 1297.0000014305115 A 8 8 0 0 1 1869.0000007152557 1305.0000014305115 L 1337.0000007152557 1305.0000014305115 L 1337.0000007152557 1305.0000014305115 A 8 8 0 0 1 1329.0000007152557 1297.0000014305115 L 1329.0000007152557 1235.0000014305115 L 1329.0000007152557 1235.0000014305115 A 8 8 0 0 1 1337.0000007152557 1227.0000014305115 L 1603.0000007152557 1227.0000014305115 Z" fill-opacity="1"/><text fill="rgb(255,255,255)" stroke="none" font-family="Avenir, Helvetica, Arial, sans-serif" font-size="32px" font-style="normal" font-weight="bold" text-decoration="normal" x="1603.0000007152557" y="1282.0000014305115" text-anchor="middle" dominant-baseline="text-after-edge" fill-opacity="1">default</text><path fill="rgb(255,247,224)" stroke="rgb(255,193,7)" paint-order="fill stroke markers" d=" M 500 1127.0000014305115 L 766 1127.0000014305115 L 766 1127.0000014305115 A 8 8 0 0 1 774 1135.0000014305115 L 774 1197.0000014305115 L 774 1197.0000014305115 A 8 8 0 0 1 766 1205.0000014305115 L 234 1205.0000014305115 L 234 1205.0000014305115 A 8 8 0 0 1 226 1197.0000014305115 L 226 1135.0000014305115 L 226 1135.0000014305115 A 8 8 0 0 1 234 1127.0000014305115 L 500 1127.0000014305115 Z" fill-opacity="1" stroke-opacity="1" stroke-miterlimit="10" stroke-width="5"/><text fill="rgb(0,0,0)" stroke="none" font-family="Avenir, Helvetica, Arial, sans-serif" font-size="32px" font-style="normal" font-weight="bold" text-decoration="normal" x="500" y="1182.0000014305115" text-anchor="middle" dominant-baseline="text-after-edge" fill-opacity="1">id</text><path fill="rgb(255,247,224)" stroke="rgb(255,193,7)" paint-order="fill stroke markers" d=" M 500 1260.0000021457672 L 766 1260.0000021457672 L 766 1260.0000021457672 A 8 8 0 0 1 774 1268.0000021457672 L 774 1330.0000021457672 L 774 1330.0000021457672 A 8 8 0 0 1 766 1338.0000021457672 L 234 1338.0000021457672 L 234 1338.0000021457672 A 8 8 0 0 1 226 1330.0000021457672 L 226 1268.0000021457672 L 226 1268.0000021457672 A 8 8 0 0 1 234 1260.0000021457672 L 500 1260.0000021457672 Z" fill-opacity="1" stroke-opacity="1" stroke-miterlimit="10" stroke-width="5"/><text fill="rgb(0,0,0)" stroke="none" font-family="Avenir, Helvetica, Arial, sans-serif" font-size="32px" font-style="normal" font-weight="bold" text-decoration="normal" x="500" y="1315.0000021457672" text-anchor="middle" dominant-baseline="text-after-edge" fill-opacity="1">name</text><path fill="rgb(225,240,255)" stroke="rgb(29,122,218)" paint-order="fill stroke markers" d=" M 500 1855.2000021457673 L 766 1855.2000021457673 L 766 1855.2000021457673 A 8 8 0 0 1 774 1863.2000021457673 L 774 1925.2000021457673 L 774 1925.2000021457673 A 8 8 0 0 1 766 1933.2000021457673 L 234 1933.2000021457673 L 234 1933.2000021457673 A 8 8 0 0 1 226 1925.2000021457673 L 226 1863.2000021457673 L 226 1863.2000021457673 A 8 8 0 0 1 234 1855.2000021457673 L 500 1855.2000021457673 Z" fill-opacity="1" stroke-opacity="1" stroke-miterlimit="10" stroke-width="5"/><text fill="rgb(0,0,0)" stroke="none" font-family="Avenir, Helvetica, Arial, sans-serif" font-size="32px" font-style="normal" font-weight="bold" text-decoration="normal" x="500" y="1910.2000021457673" text-anchor="middle" dominant-baseline="text-after-edge" fill-opacity="1">apply_to</text><path fill="rgb(225,240,255)" stroke="rgb(29,122,218)" paint-order="fill stroke markers" d=" M 500 1988.200002861023 L 766 1988.200002861023 L 766 1988.200002861023 A 8 8 0 0 1 774 1996.200002861023 L 774 2058.2000028610228 L 774 2058.2000028610228 A 8 8 0 0 1 766 2066.2000028610228 L 234 2066.2000028610228 L 234 2066.2000028610228 A 8 8 0 0 1 226 2058.2000028610228 L 226 1996.200002861023 L 226 1996.200002861023 A 8 8 0 0 1 234 1988.200002861023 L 500 1988.200002861023 Z" fill-opacity="1" stroke-opacity="1" stroke-miterlimit="10" stroke-width="5"/><text fill="rgb(0,0,0)" stroke="none" font-family="Avenir, Helvetica, Arial, sans-serif" font-size="32px" font-style="normal" font-weight="bold" text-decoration="normal" x="500" y="2043.200002861023" text-anchor="middle" dominant-baseline="text-after-edge" fill-opacity="1">name</text><path fill="rgb(225,240,255)" stroke="rgb(29,122,218)" paint-order="fill stroke markers" d=" M 500 2121.2000035762785 L 766 2121.2000035762785 L 766 2121.2000035762785 A 8 8 0 0 1 774 2129.2000035762785 L 774 2191.2000035762785 L 774 2191.2000035762785 A 8 8 0 0 1 766 2199.2000035762785 L 234 2199.2000035762785 L 234 2199.2000035762785 A 8 8 0 0 1 226 2191.2000035762785 L 226 2129.2000035762785 L 226 2129.2000035762785 A 8 8 0 0 1 234 2121.2000035762785 L 500 2121.2000035762785 Z" fill-opacity="1" stroke-opacity="1" stroke-miterlimit="10" stroke-width="5"/><text fill="rgb(0,0,0)" stroke="none" font-family="Avenir, Helvetica, Arial, sans-serif" font-size="32px" font-style="normal" font-weight="bold" text-decoration="normal" x="500" y="2176.2000035762785" text-anchor="middle" dominant-baseline="text-after-edge" fill-opacity="1">labels</text><path fill="rgb(225,240,255)" stroke="rgb(29,122,218)" paint-order="fill stroke markers" d=" M 500 2254.2000042915342 L 766 2254.2000042915342 L 766 2254.2000042915342 A 8 8 0 0 1 774 2262.2000042915342 L 774 2324.2000042915342 L 774 2324.2000042915342 A 8 8 0 0 1 766 2332.2000042915342 L 234 2332.2000042915342 L 234 2332.2000042915342 A 8 8 0 0 1 226 2324.2000042915342 L 226 2262.2000042915342 L 226 2262.2000042915342 A 8 8 0 0 1 234 2254.2000042915342 L 500 2254.2000042915342 Z" fill-opacity="1" stroke-opacity="1" stroke-miterlimit="10" stroke-width="5"/><text fill="rgb(0,0,0)" stroke="none" font-family="Avenir, Helvetica, Arial, sans-serif" font-size="32px" font-style="normal" font-weight="bold" text-decoration="normal" x="500" y="2309.2000042915342" text-anchor="middle" dominant-baseline="text-after-edge" fill-opacity="1">rule</text><g transform="scale(5,5) translate(-57.7,-9.200000000000001)"/></g></svg>